<svg xmlns="http://www.w3.org/2000/svg" xmlns:xlink="http://www.w3.org/1999/xlink" viewBox="0 0 512 512" id="diamond-card">
  <defs>
    <linearGradient id="linear-gradient" x1="386.49" x2="125.51" y1="386.49" y2="125.51" gradientUnits="userSpaceOnUse">
      <stop offset="0" stop-color="#ffd2d2"></stop>
      <stop offset=".57" stop-color="#fff"></stop>
      <stop offset="1" stop-color="#fff"></stop>
    </linearGradient>
    <linearGradient id="linear-gradient-2" x1="203.01" x2="161.96" y1="174.13" y2="133.08" gradientUnits="userSpaceOnUse">
      <stop offset="0" stop-color="#ef3739"></stop>
      <stop offset=".54" stop-color="#ef3739"></stop>
      <stop offset="1" stop-color="#ff8c8b"></stop>
    </linearGradient>
    <linearGradient xlink:href="#linear-gradient-2" id="linear-gradient-3" x1="350.04" x2="308.99" y1="378.92" y2="337.87"></linearGradient>
    <linearGradient xlink:href="#linear-gradient-2" id="linear-gradient-4" x1="292.27" x2="219.73" y1="292.27" y2="219.73"></linearGradient>
    <radialGradient id="radial-gradient" cx="256" cy="-3438.15" r="200.83" gradientTransform="matrix(1 0 0 .45 0 1968.37)" gradientUnits="userSpaceOnUse">
      <stop offset="0" stop-color="#ef3739" stop-opacity=".6"></stop>
      <stop offset="1" stop-color="#ef3739" stop-opacity="0"></stop>
    </radialGradient>
  </defs>
  <g id="Layer_8">
    <path d="M496.52,129.86C483.09,80.38,431.63,28.92,382.15,15.49,351.82,7.92,311.17.13,256,0c-55.16.14-95.81,7.92-126.14,15.49C80.38,28.93,28.92,80.38,15.49,129.86,7.92,160.19.14,200.84,0,256c.14,55.17,7.92,95.82,15.49,126.15,13.43,49.48,64.89,100.93,114.37,114.37,30.33,7.57,71,15.35,126.14,15.49,55.17-.14,95.82-7.92,126.15-15.49,49.48-13.44,100.94-64.89,114.37-114.37,7.57-30.33,15.35-71,15.49-126.15C511.87,200.84,504.09,160.19,496.52,129.86Z" style="fill:#ffe5e5"></path>
    <path d="M444.68,366.22c-10.54-17.59-50.9-35.87-89.72-40.64a862.45,862.45,0,0,0-99-5.51,862.3,862.3,0,0,0-99,5.51c-38.82,4.77-79.18,23.05-89.72,40.64C61.38,377,55.27,391.44,55.17,411c.1,19.6,6.21,34,12.15,44.83,10.54,17.58,50.9,35.86,89.72,40.64a865.2,865.2,0,0,0,99,5.5,865.2,865.2,0,0,0,99-5.5c38.82-4.78,79.18-23.06,89.72-40.64,5.94-10.78,12.05-25.23,12.15-44.83C456.73,391.44,450.62,377,444.68,366.22Z" style="fill:url(#radial-gradient)"></path>
    <path d="M375.88,385.11c4.74-44.44,4.74-213.78,0-258.22-2.11-18.1-19.47-35.47-37.58-37.57-44.43-4.75-120.17-4.75-164.6,0-18.11,2.1-35.47,19.47-37.58,37.57-4.74,44.44-4.74,213.78,0,258.22,2.11,18.1,19.47,35.47,37.58,37.57,44.43,4.75,120.17,4.75,164.6,0C356.41,420.58,373.77,403.21,375.88,385.11Z" style="fill:url(#linear-gradient)"></path>
    <path d="M193.62,165H171.36l-1.75,5.17A5.72,5.72,0,0,1,164.2,174h0a5.72,5.72,0,0,1-5.39-7.64l16.13-45.17a8,8,0,0,1,7.55-5.31h0a8,8,0,0,1,7.54,5.31l16.13,45.17a5.72,5.72,0,0,1-5.38,7.64h0a5.71,5.71,0,0,1-5.41-3.88Zm-3.74-10.8-7.31-21.42h-.16l-7.31,21.42Z" style="fill:url(#linear-gradient-2)"></path>
    <path d="M318.38,347.06h22.26l1.75-5.18A5.72,5.72,0,0,1,347.8,338h0a5.72,5.72,0,0,1,5.39,7.64l-16.13,45.17a8,8,0,0,1-7.55,5.31h0a8,8,0,0,1-7.54-5.31l-16.13-45.17a5.72,5.72,0,0,1,5.38-7.64h0a5.71,5.71,0,0,1,5.41,3.88Zm3.74,10.79,7.31,21.42h.16l7.31-21.42Z" style="fill:url(#linear-gradient-3)"></path>
    <path d="M203.19,257c24.12,11.28,43.27,37.32,51.76,70.29a1.08,1.08,0,0,0,2.1,0c8.49-33,27.64-59,51.76-70.29a1.07,1.07,0,0,0,0-1.94c-24.12-11.28-43.27-37.32-51.76-70.29a1.08,1.08,0,0,0-2.1,0c-8.49,33-27.64,59-51.76,70.29A1.07,1.07,0,0,0,203.19,257Z" style="fill:url(#linear-gradient-4)"></path>
  </g>
</svg>
